<svg width="10" height="10" viewBox="0 0 10 10" fill="none" xmlns="http://www.w3.org/2000/svg">
<g id="arrow 1" clip-path="url(#clip0_78_4490)">
<g id="Group">
<g id="Group_2">
<path id="Vector" d="M4.29707 0.601055C4.29043 0.641972 4.28737 0.683382 4.28791 0.724813L4.28791 7.77961L4.21636 7.62578C4.14519 7.47542 4.04833 7.33862 3.93016 7.22153L1.95181 5.24318C1.70309 4.98263 1.30297 4.93885 1.00378 5.13944C0.684964 5.37289 0.61574 5.82059 0.849193 6.13943C0.868064 6.16519 0.888634 6.18967 0.91077 6.21268L4.48824 9.79015C4.76751 10.0697 5.22053 10.07 5.50011 9.79071C5.50029 9.79053 5.50049 9.79033 5.50067 9.79015L9.07814 6.21268C9.35716 5.93288 9.35654 5.47986 9.07673 5.20081C9.05471 5.17886 9.03128 5.15835 9.00659 5.13944C8.7074 4.93885 8.30729 4.98263 8.05856 5.24318L6.07664 7.21795C5.97155 7.32293 5.88344 7.44362 5.81549 7.5757L5.71889 7.79035L5.71889 0.764188C5.73247 0.398681 5.47715 0.0780056 5.11788 0.00934009C4.72782 -0.0539133 4.36035 0.210998 4.29707 0.601055Z" fill="black"/>
</g>
</g>
</g>
<defs>
<clipPath id="clip0_78_4490">
<rect width="10" height="10" fill="white" transform="translate(0 10) rotate(-90)"/>
</clipPath>
</defs>
</svg>
