<svg width="10" height="9" viewBox="0 0 10 9" fill="none" xmlns="http://www.w3.org/2000/svg">
<g id="next 2" clip-path="url(#clip0_43_6071)">
<g id="Group">
<path id="Vector" d="M5.63934 6.94242C5.68486 6.89722 5.72328 6.84718 5.7567 6.7952L9.24486 3.30688C9.58499 2.96642 9.58515 2.41466 9.2447 2.07404C8.90441 1.73359 8.35248 1.73359 8.01187 2.07404L5.00783 5.0784L1.98797 2.05887C1.64784 1.71825 1.09575 1.71825 0.755139 2.05887C0.585154 2.22917 0.500081 2.45211 0.500081 2.67504C0.500081 2.89798 0.585154 3.12139 0.755463 3.29122L4.25896 6.7952C4.29238 6.84718 4.33063 6.89706 4.37632 6.94242C4.55066 7.11677 4.77957 7.20039 5.00783 7.19651C5.23625 7.20055 5.46548 7.11677 5.63934 6.94242Z" fill="white"/>
</g>
</g>
<defs>
<clipPath id="clip0_43_6071">
<rect width="9" height="9" fill="white" transform="translate(9.5) rotate(90)"/>
</clipPath>
</defs>
</svg>
