<svg width="28" height="28" viewBox="0 0 28 28" fill="none" xmlns="http://www.w3.org/2000/svg">
<g id="close 1">
<g id="Group">
<path id="Vector" fill-rule="evenodd" clip-rule="evenodd" d="M17.4086 10.5752C17.7503 10.917 17.7503 11.471 17.4086 11.8127L11.818 17.4033C11.4762 17.7451 10.9222 17.7451 10.5805 17.4033C10.2388 17.0616 10.2388 16.5076 10.5805 16.1659L16.1711 10.5752C16.5129 10.2335 17.0669 10.2335 17.4086 10.5752Z" fill="white"/>
<path id="Vector_2" fill-rule="evenodd" clip-rule="evenodd" d="M10.5805 10.5732C10.9222 10.2315 11.4762 10.2315 11.818 10.5732L17.418 16.1731C17.7597 16.5148 17.7597 17.0689 17.418 17.4106C17.0762 17.7523 16.5222 17.7523 16.1805 17.4106L10.5805 11.8106C10.2388 11.4689 10.2388 10.9149 10.5805 10.5732Z" fill="white"/>
<path id="Vector_3" fill-rule="evenodd" clip-rule="evenodd" d="M4.9492 4.95068C6.89495 3.00494 9.90358 2.3335 13.9987 2.3335C18.0938 2.3335 21.1024 3.00494 23.0482 4.95068C24.9939 6.89641 25.6654 9.90505 25.6654 14.0001C25.6654 18.0953 24.9939 21.104 23.0482 23.0496C21.1024 24.9954 18.0938 25.6668 13.9987 25.6668C9.90358 25.6668 6.89495 24.9954 4.9492 23.0496C3.00347 21.104 2.33203 18.0953 2.33203 14.0001C2.33203 9.90505 3.00347 6.89641 4.9492 4.95068ZM6.18665 6.18812C4.75984 7.61491 4.08203 10.0021 4.08203 14.0001C4.08203 17.9982 4.75984 20.3854 6.18665 21.8123C7.61345 23.239 10.0006 23.9168 13.9987 23.9168C17.9967 23.9168 20.384 23.239 21.8107 21.8123C23.2375 20.3854 23.9154 17.9982 23.9154 14.0001C23.9154 10.0021 23.2375 7.61491 21.8107 6.18812C20.384 4.76131 17.9967 4.0835 13.9987 4.0835C10.0006 4.0835 7.61345 4.76131 6.18665 6.18812Z" fill="white"/>
</g>
</g>
</svg>
