<svg width="32" height="32" viewBox="0 0 32 32" fill="none" xmlns="http://www.w3.org/2000/svg">
<g id="vuesax/linear/heart">
<rect width="32" height="32" rx="16" fill="black" fill-opacity="0.3"/>
<g id="vuesax/linear/verify">
<g id="verify">
<path id="Vector" d="M12.3799 16L14.7899 18.42L19.6199 13.58" stroke="#E5F6ED" stroke-width="1.5" stroke-linecap="round" stroke-linejoin="round"/>
<path id="Vector_2" d="M14.7499 6.45001C15.4399 5.86001 16.5699 5.86001 17.2699 6.45001L18.8499 7.81001C19.1499 8.07001 19.7099 8.28001 20.1099 8.28001H21.8099C22.8699 8.28001 23.7399 9.15001 23.7399 10.21V11.91C23.7399 12.3 23.9499 12.87 24.2099 13.17L25.5699 14.75C26.1599 15.44 26.1599 16.57 25.5699 17.27L24.2099 18.85C23.9499 19.15 23.7399 19.71 23.7399 20.11V21.81C23.7399 22.87 22.8699 23.74 21.8099 23.74H20.1099C19.7199 23.74 19.1499 23.95 18.8499 24.21L17.2699 25.57C16.5799 26.16 15.4499 26.16 14.7499 25.57L13.1699 24.21C12.8699 23.95 12.3099 23.74 11.9099 23.74H10.1799C9.11988 23.74 8.24988 22.87 8.24988 21.81V20.1C8.24988 19.71 8.03988 19.15 7.78988 18.85L6.43988 17.26C5.85988 16.57 5.85988 15.45 6.43988 14.76L7.78988 13.17C8.03988 12.87 8.24988 12.31 8.24988 11.92V10.2C8.24988 9.14001 9.11988 8.27001 10.1799 8.27001H11.9099C12.2999 8.27001 12.8699 8.06001 13.1699 7.80001L14.7499 6.45001Z" stroke="#E5F6ED" stroke-width="1.5" stroke-linecap="round" stroke-linejoin="round"/>
</g>
</g>
</g>
</svg>
