<svg width="30" height="31" viewBox="0 0 30 31" fill="none" xmlns="http://www.w3.org/2000/svg">
<g id="copy 1">
<g id="Group">
<path id="Vector" d="M14.25 28.9375H9.5C4.0125 28.9375 1.5625 26.4875 1.5625 21V16.25C1.5625 10.7625 4.0125 8.3125 9.5 8.3125H13.25C13.7625 8.3125 14.1875 8.7375 14.1875 9.25C14.1875 9.7625 13.7625 10.1875 13.25 10.1875H9.5C5.025 10.1875 3.4375 11.775 3.4375 16.25V21C3.4375 25.475 5.025 27.0625 9.5 27.0625H14.25C18.725 27.0625 20.3125 25.475 20.3125 21V17.25C20.3125 16.7375 20.7375 16.3125 21.25 16.3125C21.7625 16.3125 22.1875 16.7375 22.1875 17.25V21C22.1875 26.4875 19.7375 28.9375 14.25 28.9375Z" fill="#0072B5"/>
<path id="Vector_2" d="M19.5 3.9375H14.5C13.9875 3.9375 13.5625 3.5125 13.5625 3C13.5625 2.4875 13.9875 2.0625 14.5 2.0625H19.5C20.0125 2.0625 20.4375 2.4875 20.4375 3C20.4375 3.5125 20.0125 3.9375 19.5 3.9375Z" fill="#0072B5"/>
<path id="Vector_3" d="M8.75 7.6875C8.2375 7.6875 7.8125 7.2625 7.8125 6.75C7.8125 4.1625 9.9125 2.0625 12.5 2.0625H15.775C16.2875 2.0625 16.7125 2.4875 16.7125 3C16.7125 3.5125 16.2875 3.9375 15.775 3.9375H12.5C10.95 3.9375 9.6875 5.2 9.6875 6.75C9.6875 7.2625 9.2625 7.6875 8.75 7.6875Z" fill="#0072B5"/>
<path id="Vector_4" d="M23.9883 22.6875C23.4758 22.6875 23.0508 22.2625 23.0508 21.75C23.0508 21.2375 23.4758 20.8125 23.9883 20.8125C25.4133 20.8125 26.5633 19.65 26.5633 18.2375V10.5C26.5633 9.9875 26.9883 9.5625 27.5008 9.5625C28.0133 9.5625 28.4383 9.9875 28.4383 10.5V18.2375C28.4383 20.6875 26.4383 22.6875 23.9883 22.6875Z" fill="#0072B5"/>
</g>
<path id="Vector_5" d="M21.25 18.1876H17.25C13.7375 18.1876 12.3125 16.7626 12.3125 13.2501V9.25011C12.3125 8.87511 12.5375 8.52511 12.8875 8.38761C13.2375 8.23761 13.6375 8.32511 13.9125 8.58761L21.9125 16.5876C22.175 16.8501 22.2625 17.2626 22.1125 17.6126C21.975 17.9626 21.625 18.1876 21.25 18.1876ZM14.1875 11.5126V13.2501C14.1875 15.7376 14.7625 16.3126 17.25 16.3126H18.9875L14.1875 11.5126Z" fill="#0072B5"/>
<path id="Vector_6" d="M27.5 11.4376H23.75C20.425 11.4376 19.0625 10.0751 19.0625 6.75011V3.00011C19.0625 2.62511 19.2875 2.27511 19.6375 2.13761C19.9875 1.98761 20.3875 2.07511 20.6625 2.33761L28.1625 9.83761C28.425 10.1001 28.5125 10.5126 28.3625 10.8626C28.225 11.2126 27.875 11.4376 27.5 11.4376ZM20.9375 5.26261V6.75011C20.9375 9.03761 21.4625 9.56261 23.75 9.56261H25.2375L20.9375 5.26261Z" fill="#0072B5"/>
</g>
</svg>
