<svg width="32" height="32" viewBox="0 0 32 32" fill="none" xmlns="http://www.w3.org/2000/svg">
<rect width="32" height="32" rx="16" fill="black" fill-opacity="0.3"/>
<path fill-rule="evenodd" clip-rule="evenodd" d="M7.25 11.3333C7.25 10.85 7.64175 10.4583 8.125 10.4583H23.875C24.3582 10.4583 24.75 10.85 24.75 11.3333C24.75 11.8165 24.3582 12.2083 23.875 12.2083H22.4167V21.5416C22.4167 23.3135 20.9803 24.7499 19.2083 24.7499H12.7917C11.0198 24.7499 9.58333 23.3135 9.58333 21.5416V12.2083H8.125C7.64175 12.2083 7.25 11.8165 7.25 11.3333ZM11.3333 12.2083V21.5416C11.3333 22.3471 11.9862 22.9999 12.7917 22.9999H19.2083C20.0138 22.9999 20.6667 22.3471 20.6667 21.5416V12.2083H11.3333Z" fill="white"/>
<path fill-rule="evenodd" clip-rule="evenodd" d="M11.625 8.125C11.625 7.64175 12.0168 7.25 12.5 7.25H19.5C19.9832 7.25 20.375 7.64175 20.375 8.125C20.375 8.60824 19.9832 9 19.5 9H12.5C12.0168 9 11.625 8.60824 11.625 8.125Z" fill="white"/>
<path fill-rule="evenodd" clip-rule="evenodd" d="M14.25 14.5417C14.7332 14.5417 15.125 14.9335 15.125 15.4167V19.7917C15.125 20.275 14.7332 20.6667 14.25 20.6667C13.7668 20.6667 13.375 20.275 13.375 19.7917V15.4167C13.375 14.9335 13.7668 14.5417 14.25 14.5417Z" fill="white"/>
<path fill-rule="evenodd" clip-rule="evenodd" d="M17.75 14.5417C18.2332 14.5417 18.625 14.9335 18.625 15.4167V19.7917C18.625 20.275 18.2332 20.6667 17.75 20.6667C17.2668 20.6667 16.875 20.275 16.875 19.7917V15.4167C16.875 14.9335 17.2668 14.5417 17.75 14.5417Z" fill="white"/>
</svg>
