<svg width="24" height="24" viewBox="0 0 24 24" fill="none" xmlns="http://www.w3.org/2000/svg">
<g id="delete 1">
<g id="Group">
<path id="Vector" fill-rule="evenodd" clip-rule="evenodd" d="M7.01277 5.48938L7.01733 5.48937C7.44333 5.48937 7.81333 5.18537 7.89733 4.76737L8.14033 3.55137C8.38733 2.61937 9.19433 2.00037 10.1123 2.00037H14.3453C15.2633 2.00037 16.0703 2.61937 16.3073 3.50637L16.5613 4.76737C16.6443 5.18537 17.0143 5.48937 17.4403 5.48937L17.4449 5.48938H20.708C21.122 5.48938 21.458 5.82538 21.458 6.23938C21.458 6.65338 21.122 6.98938 20.708 6.98938H3.75C3.336 6.98938 3 6.65338 3 6.23938C3 5.82538 3.336 5.48938 3.75 5.48938H7.01277ZM15.2184 5.48938C15.1632 5.3532 15.1201 5.21047 15.0903 5.06237L14.8473 3.84637C14.7963 3.66137 14.5853 3.50037 14.3453 3.50037H10.1123C9.87233 3.50037 9.66133 3.66137 9.60033 3.89237L9.36733 5.06237C9.33774 5.21047 9.29465 5.3532 9.23952 5.48938H15.2184Z" fill="#212121"/>
<path id="Vector_2" fill-rule="evenodd" clip-rule="evenodd" d="M12.2464 22.0001C10.8914 22.0001 9.57035 21.9851 8.26335 21.9581C6.59135 21.9251 5.43435 20.8411 5.24535 19.1291C4.93035 16.2891 4.39135 9.59515 4.38635 9.52815C4.35235 9.11515 4.66035 8.75315 5.07335 8.72015C5.48035 8.70915 5.84835 8.99515 5.88135 9.40715C5.88635 9.47515 6.42435 16.1461 6.73635 18.9641C6.84335 19.9371 7.36835 20.4391 8.29435 20.4581C10.7944 20.5111 13.3454 20.5141 16.0954 20.4641C17.0794 20.4451 17.6114 19.9531 17.7214 18.9571C18.0314 16.1631 18.5714 9.47515 18.5774 9.40715C18.6104 8.99515 18.9754 8.70715 19.3844 8.72015C19.7974 8.75415 20.1054 9.11515 20.0724 9.52815C20.0664 9.59615 19.5244 16.3071 19.2124 19.1221C19.0184 20.8691 17.8644 21.9321 16.1224 21.9641C14.7894 21.9871 13.5034 22.0001 12.2464 22.0001Z" fill="#212121"/>
</g>
</g>
</svg>
