<svg width="16" height="17" viewBox="0 0 16 17" fill="none" xmlns="http://www.w3.org/2000/svg">
<path d="M2.5625 12C2.71168 12 2.85476 12.0665 2.96025 12.185C3.06574 12.3034 3.125 12.4641 3.125 12.6316V14.5263C3.125 14.6425 3.209 14.7368 3.3125 14.7368H12.6875C12.7372 14.7368 12.7849 14.7147 12.8201 14.6752C12.8552 14.6357 12.875 14.5822 12.875 14.5263V12.6316C12.875 12.4641 12.9343 12.3034 13.0398 12.185C13.1452 12.0665 13.2883 12 13.4375 12C13.5867 12 13.7298 12.0665 13.8352 12.185C13.9407 12.3034 14 12.4641 14 12.6316V14.5263C14 14.9172 13.8617 15.292 13.6156 15.5684C13.3694 15.8447 13.0356 16 12.6875 16H3.3125C2.9644 16 2.63056 15.8447 2.38442 15.5684C2.13828 15.292 2 14.9172 2 14.5263V12.6316C2 12.4641 2.05926 12.3034 2.16475 12.185C2.27024 12.0665 2.41332 12 2.5625 12Z" fill="#3C3C3C"/>
<path d="M3.15668 7.17059C3.25714 7.06184 3.39331 7.00077 3.53529 7.00077C3.67726 7.00077 3.81343 7.06184 3.91389 7.17059L7.46417 11.0177V1.58067C7.46417 1.42667 7.52062 1.27897 7.62109 1.17007C7.72157 1.06118 7.85784 1 7.99993 1C8.14202 1 8.27829 1.06118 8.37877 1.17007C8.47924 1.27897 8.53569 1.42667 8.53569 1.58067V11.0177L12.086 7.17059C12.1864 7.06176 12.3226 7.00062 12.4646 7.00062C12.6066 7.00062 12.7428 7.06176 12.8432 7.17059C12.9436 7.27941 13 7.42702 13 7.58092C13 7.73483 12.9436 7.88244 12.8432 7.99126L8.37853 12.8302C8.27808 12.9389 8.14191 13 7.99993 13C7.85795 13 7.72178 12.9389 7.62133 12.8302L3.15668 7.99126C3.05635 7.88239 3 7.7348 3 7.58092C3 7.42705 3.05635 7.27946 3.15668 7.17059Z" fill="#3C3C3C"/>
</svg>
