<svg width="12" height="12" viewBox="0 0 12 12" fill="none" xmlns="http://www.w3.org/2000/svg">
<g id="down 1">
<g id="16">
<path id="Vector" d="M5.99997 8.00009C5.93417 8.00047 5.86894 7.98786 5.80802 7.96298C5.7471 7.9381 5.69169 7.90143 5.64497 7.85509L2.64497 4.85509C2.55082 4.76094 2.49792 4.63324 2.49792 4.50009C2.49792 4.36694 2.55082 4.23924 2.64497 4.14509C2.73912 4.05094 2.86682 3.99805 2.99997 3.99805C3.13312 3.99805 3.26082 4.05094 3.35497 4.14509L5.99997 6.79509L8.64497 4.15009C8.74062 4.06818 8.86366 4.02538 8.9895 4.03024C9.11533 4.0351 9.2347 4.08726 9.32375 4.17631C9.4128 4.26536 9.46496 4.38473 9.46983 4.51057C9.47469 4.6364 9.43188 4.75944 9.34997 4.85509L6.34997 7.85509C6.25684 7.94747 6.13114 7.99954 5.99997 8.00009Z" fill="#0072B5"/>
</g>
</g>
</svg>
