<svg width="12" height="12" viewBox="0 0 12 12" fill="none" xmlns="http://www.w3.org/2000/svg">
<g id="down 1">
<g id="16">
<path id="Vector" d="M6.00009 7.99997C5.93429 8.00035 5.86906 7.98774 5.80814 7.96286C5.74722 7.93797 5.69181 7.90131 5.64509 7.85497L2.64509 4.85497C2.55094 4.76082 2.49805 4.63312 2.49805 4.49997C2.49805 4.36682 2.55094 4.23912 2.64509 4.14497C2.73924 4.05082 2.86694 3.99792 3.00009 3.99792C3.13324 3.99792 3.26094 4.05082 3.35509 4.14497L6.00009 6.79497L8.64509 4.14997C8.74074 4.06806 8.86378 4.02525 8.98962 4.03011C9.11546 4.03498 9.23483 4.08714 9.32387 4.17619C9.41292 4.26524 9.46509 4.38461 9.46995 4.51044C9.47481 4.63628 9.43201 4.75932 9.35009 4.85497L6.35009 7.85497C6.25696 7.94734 6.13126 7.99942 6.00009 7.99997Z" fill="#0072B5"/>
</g>
</g>
</svg>
