<svg width="50" height="51" viewBox="0 0 50 51" fill="none" xmlns="http://www.w3.org/2000/svg">
<g id="empty-box 1">
<g id="Group">
<path id="Vector" d="M49.1138 12.8409C49.1138 12.7651 49.0986 12.6894 49.0683 12.6136C49.0607 12.5985 49.0607 12.5758 49.0532 12.5606C49.0456 12.553 49.0456 12.5379 49.0456 12.5303L44.4471 3.43939C43.7653 2.09848 42.4016 1.25757 40.8941 1.25757H9.10618C7.5986 1.25757 6.23497 2.0909 5.56072 3.43939L0.96224 12.5379C0.954664 12.5454 0.954664 12.5606 0.954664 12.5682C0.947088 12.5833 0.939512 12.5985 0.931937 12.6212C0.901634 12.697 0.886482 12.7727 0.886482 12.8485C0.886482 12.8561 0.878906 12.8636 0.878906 12.8788V45.7727C0.878906 47.9621 2.66678 49.75 4.85618 49.75H45.1365C47.3259 49.75 49.1138 47.9697 49.1138 45.7727V12.8712C49.1213 12.8561 49.1138 12.8485 49.1138 12.8409ZM43.1289 4.10605L47.1819 12.1364H41.6213V2.8409C42.2728 3.03787 42.8183 3.48484 43.1289 4.10605ZM9.84103 12.1364V2.72727H40.1592V12.1364H9.84103ZM6.87133 4.10605C7.18194 3.48484 7.72739 3.03787 8.37133 2.8409V12.1364H2.81072L6.87133 4.10605ZM47.6516 45.7651C47.6516 47.1439 46.5304 48.2727 45.1441 48.2727H4.85618C3.47739 48.2727 2.3486 47.1515 2.3486 45.7651V13.6061H47.6516V45.7651Z" fill="#747D8C"/>
<path id="Vector_2" d="M30.8867 17.7273H19.1139C18.273 17.7273 17.4776 18.0606 16.8791 18.6591C16.2806 19.2576 15.9473 20.0531 15.9473 20.894C15.9473 22.6364 17.3639 24.0606 19.1139 24.0606H30.8791C31.72 24.0606 32.5154 23.7273 33.1139 23.1288C33.7124 22.5303 34.0457 21.7349 34.0457 20.894C34.0533 19.144 32.6291 17.7273 30.8867 17.7273ZM32.0836 22.0909C31.7654 22.4091 31.3336 22.5909 30.8867 22.5909H19.1139C18.1821 22.5909 17.417 21.8334 17.417 20.894C17.417 20.4394 17.5912 20.0152 17.917 19.697C18.2351 19.3788 18.667 19.197 19.1139 19.197H30.8791C31.8109 19.197 32.5761 19.9546 32.5761 20.894C32.5836 21.3409 32.4018 21.7727 32.0836 22.0909Z" fill="#747D8C"/>
<path id="Vector_3" d="M20.0835 40.3636C19.6744 40.3636 19.3486 40.6894 19.3486 41.0985V44.5303C19.3486 44.9394 19.6744 45.2652 20.0835 45.2652C20.4926 45.2652 20.8183 44.9394 20.8183 44.5303V41.0985C20.8183 40.697 20.4926 40.3636 20.0835 40.3636Z" fill="#747D8C"/>
<path id="Vector_4" d="M15.8794 40.3635C15.4703 40.3635 15.1445 40.6893 15.1445 41.0984V44.5302C15.1445 44.9393 15.4703 45.265 15.8794 45.265C16.2885 45.265 16.6142 44.9393 16.6142 44.5302V41.0984C16.6142 40.6969 16.2809 40.3635 15.8794 40.3635Z" fill="#747D8C"/>
<path id="Vector_5" d="M11.6665 40.3635C11.2574 40.3635 10.9316 40.6893 10.9316 41.0984V44.5302C10.9316 44.9393 11.2574 45.265 11.6665 45.265C12.0756 45.265 12.4013 44.9393 12.4013 44.5302V41.0984C12.4013 40.6969 12.0756 40.3635 11.6665 40.3635Z" fill="#747D8C"/>
<path id="Vector_6" d="M7.46239 40.3636C7.0533 40.3636 6.72754 40.6894 6.72754 41.0985V44.5303C6.72754 44.9394 7.0533 45.2652 7.46239 45.2652C7.87148 45.2652 8.19724 44.9394 8.19724 44.5303V41.0985C8.19724 40.697 7.87148 40.3636 7.46239 40.3636Z" fill="#747D8C"/>
<path id="Vector_7" d="M36.9468 35.1136C36.6589 34.8257 36.1968 34.8257 35.9089 35.1136L34.5225 36.5C34.2347 36.7879 34.2347 37.25 34.5225 37.5379C34.8104 37.8257 35.2725 37.8257 35.5604 37.5379L35.6968 37.4015V44.5227C35.6968 44.9318 36.0226 45.2576 36.4316 45.2576C36.8407 45.2576 37.1665 44.9318 37.1665 44.5227V37.4015L37.3029 37.5379C37.4468 37.6818 37.6362 37.75 37.8256 37.75C38.015 37.75 38.2044 37.6818 38.3483 37.5379C38.6362 37.25 38.6362 36.7879 38.3483 36.5L36.9468 35.1136Z" fill="#747D8C"/>
<path id="Vector_8" d="M40.1515 37.5454C40.4393 37.8333 40.9015 37.8333 41.1893 37.5454L41.3257 37.4091V44.5303C41.3257 44.9394 41.6515 45.2651 42.0605 45.2651C42.4696 45.2651 42.7954 44.9394 42.7954 44.5303V37.4091L42.9318 37.5454C43.0757 37.6894 43.2651 37.7575 43.4545 37.7575C43.6439 37.7575 43.8333 37.6894 43.9772 37.5454C44.2651 37.2575 44.2651 36.7954 43.9772 36.5075L42.5909 35.1212C42.303 34.8333 41.8408 34.8333 41.553 35.1212L40.1515 36.5075C39.8636 36.7878 39.8636 37.2575 40.1515 37.5454Z" fill="#747D8C"/>
</g>
</g>
</svg>
