<svg width="50" height="50" viewBox="0 0 50 50" fill="none" xmlns="http://www.w3.org/2000/svg">
<g id="empty-box 1" clip-path="url(#clip0_77_6060)">
<g id="Group">
<path id="Vector" d="M49.1138 12.3409C49.1138 12.2651 49.0986 12.1894 49.0683 12.1136C49.0607 12.0985 49.0607 12.0758 49.0532 12.0606C49.0456 12.053 49.0456 12.0379 49.0456 12.0303L44.4471 2.93939C43.7653 1.59848 42.4016 0.757568 40.8941 0.757568H9.10618C7.5986 0.757568 6.23497 1.5909 5.56072 2.93939L0.96224 12.0379C0.954664 12.0454 0.954664 12.0606 0.954664 12.0682C0.947088 12.0833 0.939512 12.0985 0.931937 12.1212C0.901634 12.197 0.886482 12.2727 0.886482 12.3485C0.886482 12.3561 0.878906 12.3636 0.878906 12.3788V45.2727C0.878906 47.4621 2.66678 49.25 4.85618 49.25H45.1365C47.3259 49.25 49.1138 47.4697 49.1138 45.2727V12.3712C49.1213 12.3561 49.1138 12.3485 49.1138 12.3409ZM43.1289 3.60605L47.1819 11.6364H41.6213V2.3409C42.2728 2.53787 42.8183 2.98484 43.1289 3.60605ZM9.84103 11.6364V2.22727H40.1592V11.6364H9.84103ZM6.87133 3.60605C7.18194 2.98484 7.72739 2.53787 8.37133 2.3409V11.6364H2.81072L6.87133 3.60605ZM47.6516 45.2651C47.6516 46.6439 46.5304 47.7727 45.1441 47.7727H4.85618C3.47739 47.7727 2.3486 46.6515 2.3486 45.2651V13.1061H47.6516V45.2651Z" fill="#747D8C"/>
<path id="Vector_2" d="M30.8867 17.2273H19.1139C18.273 17.2273 17.4776 17.5606 16.8791 18.1591C16.2806 18.7576 15.9473 19.553 15.9473 20.3939C15.9473 22.1364 17.3639 23.5606 19.1139 23.5606H30.8791C31.72 23.5606 32.5154 23.2273 33.1139 22.6288C33.7124 22.0303 34.0457 21.2348 34.0457 20.3939C34.0533 18.6439 32.6291 17.2273 30.8867 17.2273ZM32.0836 21.5909C31.7654 21.9091 31.3336 22.0909 30.8867 22.0909H19.1139C18.1821 22.0909 17.417 21.3333 17.417 20.3939C17.417 19.9394 17.5912 19.5151 17.917 19.197C18.2351 18.8788 18.667 18.697 19.1139 18.697H30.8791C31.8109 18.697 32.5761 19.4545 32.5761 20.3939C32.5836 20.8409 32.4018 21.2727 32.0836 21.5909Z" fill="#747D8C"/>
<path id="Vector_3" d="M20.0825 39.8636C19.6734 39.8636 19.3477 40.1894 19.3477 40.5985V44.0303C19.3477 44.4394 19.6734 44.7652 20.0825 44.7652C20.4916 44.7652 20.8174 44.4394 20.8174 44.0303V40.5985C20.8174 40.197 20.4916 39.8636 20.0825 39.8636Z" fill="#747D8C"/>
<path id="Vector_4" d="M15.8794 39.8635C15.4703 39.8635 15.1445 40.1893 15.1445 40.5984V44.0302C15.1445 44.4393 15.4703 44.765 15.8794 44.765C16.2885 44.765 16.6142 44.4393 16.6142 44.0302V40.5984C16.6142 40.1969 16.2809 39.8635 15.8794 39.8635Z" fill="#747D8C"/>
<path id="Vector_5" d="M11.6665 39.8635C11.2574 39.8635 10.9316 40.1893 10.9316 40.5984V44.0302C10.9316 44.4393 11.2574 44.765 11.6665 44.765C12.0756 44.765 12.4013 44.4393 12.4013 44.0302V40.5984C12.4013 40.1969 12.0756 39.8635 11.6665 39.8635Z" fill="#747D8C"/>
<path id="Vector_6" d="M7.46141 39.8636C7.05232 39.8636 6.72656 40.1894 6.72656 40.5985V44.0303C6.72656 44.4394 7.05232 44.7652 7.46141 44.7652C7.8705 44.7652 8.19626 44.4394 8.19626 44.0303V40.5985C8.19626 40.197 7.8705 39.8636 7.46141 39.8636Z" fill="#747D8C"/>
<path id="Vector_7" d="M36.9468 34.6136C36.6589 34.3257 36.1968 34.3257 35.9089 34.6136L34.5225 36C34.2347 36.2879 34.2347 36.75 34.5225 37.0379C34.8104 37.3257 35.2725 37.3257 35.5604 37.0379L35.6968 36.9015V44.0227C35.6968 44.4318 36.0226 44.7576 36.4316 44.7576C36.8407 44.7576 37.1665 44.4318 37.1665 44.0227V36.9015L37.3029 37.0379C37.4468 37.1818 37.6362 37.25 37.8256 37.25C38.015 37.25 38.2044 37.1818 38.3483 37.0379C38.6362 36.75 38.6362 36.2879 38.3483 36L36.9468 34.6136Z" fill="#747D8C"/>
<path id="Vector_8" d="M40.1515 37.0455C40.4393 37.3333 40.9015 37.3333 41.1893 37.0455L41.3257 36.9091V44.0303C41.3257 44.4394 41.6515 44.7652 42.0605 44.7652C42.4696 44.7652 42.7954 44.4394 42.7954 44.0303V36.9091L42.9318 37.0455C43.0757 37.1894 43.2651 37.2576 43.4545 37.2576C43.6439 37.2576 43.8333 37.1894 43.9772 37.0455C44.2651 36.7576 44.2651 36.2955 43.9772 36.0076L42.5909 34.6212C42.303 34.3333 41.8408 34.3333 41.553 34.6212L40.1515 36.0076C39.8636 36.2879 39.8636 36.7576 40.1515 37.0455Z" fill="#747D8C"/>
</g>
</g>
<defs>
<clipPath id="clip0_77_6060">
<rect width="50" height="50" fill="white"/>
</clipPath>
</defs>
</svg>
