<?xml version="1.0" encoding="UTF-8"?>
<svg xmlns="http://www.w3.org/2000/svg" width="20.565" height="24" viewBox="0 0 20.565 24">
  <path id="icon-awesome-xing" d="M8.715,11.784Q8.57,12.049,4.96,18.4a1.125,1.125,0,0,1-.948.669H.525A.51.51,0,0,1,.07,18.3l3.7-6.5q.016,0,0-.016L1.414,7.734a.476.476,0,0,1,.455-.755H5.356a1.11,1.11,0,0,1,.964.653ZM20.492,3.005,12.78,16.556v.016l4.906,8.923a.48.48,0,0,1-.455.755H13.738a1.066,1.066,0,0,1-.964-.653L7.825,16.572q.265-.466,7.755-13.668a1.08,1.08,0,0,1,.937-.653h3.519A.487.487,0,0,1,20.492,3.005Z" transform="translate(-0.002 -2.25)" fill="#fff"></path>
</svg>
