<?xml version="1.0" encoding="UTF-8"?>
<svg xmlns="http://www.w3.org/2000/svg" width="24.001" height="24" viewBox="0 0 24.001 24">
  <path id="icon-awesome-linkedin_in" d="M5.372,24H.4V7.977H5.372ZM2.882,5.791A2.9,2.9,0,1,1,5.763,2.882,2.906,2.906,0,0,1,2.882,5.791ZM24,24H19.03V16.2c0-1.859-.038-4.243-2.587-4.243-2.587,0-2.983,2.02-2.983,4.109V24H8.489V7.977h4.772v2.186h.07a5.228,5.228,0,0,1,4.708-2.588C23.075,7.575,24,10.891,24,15.2V24Z" transform="translate(0 0)" fill="#fff"></path>
</svg>
