<svg width="10" height="11" viewBox="0 0 10 11" fill="none" xmlns="http://www.w3.org/2000/svg">
<g id="next 2" clip-path="url(#clip0_72_5697)">
<g id="Group">
<path id="Vector" d="M5.71038 8.2138C5.76096 8.16358 5.80365 8.10798 5.84078 8.05022L9.71651 4.17431C10.0944 3.79602 10.0946 3.18295 9.71633 2.80449C9.33823 2.42621 8.72498 2.42621 8.34652 2.80449L5.0087 6.14267L1.6533 2.78763C1.27538 2.40917 0.661949 2.40917 0.283487 2.78763C0.094615 2.97686 8.96139e-05 3.22456 8.96031e-05 3.47227C8.95922e-05 3.71997 0.0946149 3.96822 0.283846 4.15691L4.17662 8.05022C4.21375 8.10798 4.25626 8.1634 4.30702 8.2138C4.50074 8.40752 4.75508 8.50043 5.0087 8.49613C5.2625 8.50061 5.5172 8.40752 5.71038 8.2138Z" fill="#212121"/>
</g>
</g>
<defs>
<clipPath id="clip0_72_5697">
<rect width="10" height="10" fill="white" transform="translate(10 0.5) rotate(90)"/>
</clipPath>
</defs>
</svg>
