<svg width="19" height="19" viewBox="0 0 19 19" fill="none" xmlns="http://www.w3.org/2000/svg">
<g id="visibility (1)" clip-path="url(#clip0_41_5665)">
<g id="Group">
<g id="Group_2">
<g id="Group_3">
<path id="Vector" d="M9.49947 7.04541C8.14536 7.04541 7.04492 8.14585 7.04492 9.49996C7.04492 10.8541 8.14536 11.9545 9.49947 11.9545C10.8536 11.9545 11.954 10.8541 11.954 9.49996C11.954 8.14585 10.8535 7.04541 9.49947 7.04541Z" fill="#D1D7DE"/>
<path id="Vector_2" d="M9.50002 3.36365C5.40909 3.36365 1.91547 5.90817 0.5 9.50002C1.91547 13.0918 5.40909 15.6364 9.50002 15.6364C13.595 15.6364 17.0846 13.0918 18.5 9.50002C17.0846 5.90817 13.595 3.36365 9.50002 3.36365ZM9.50002 13.5909C7.24184 13.5909 5.40909 11.7582 5.40909 9.49998C5.40909 7.2418 7.24184 5.40909 9.50002 5.40909C11.7582 5.40909 13.5909 7.24183 13.5909 9.50002C13.5909 11.7582 11.7582 13.5909 9.50002 13.5909Z" fill="#D1D7DE"/>
</g>
</g>
</g>
</g>
<defs>
<clipPath id="clip0_41_5665">
<rect width="18" height="18" fill="white" transform="translate(0.5 0.5)"/>
</clipPath>
</defs>
</svg>
