<svg width="32" height="32" viewBox="0 0 32 32" fill="none" xmlns="http://www.w3.org/2000/svg">
<g id="vuesax/linear/heart">
<rect width="32" height="32" rx="16" fill="black" fill-opacity="0.3"/>
<g id="vuesax/linear/broom">
<g id="broom">
<path id="Vector" d="M13.8701 9.66998L10.4501 11.75L8.89007 9.19C8.32007 8.25 8.62006 7.01 9.56006 6.44C10.5001 5.87 11.7401 6.16998 12.3101 7.10998L13.8701 9.66998Z" stroke="white" stroke-width="1.5" stroke-linecap="round" stroke-linejoin="round"/>
<path id="Vector_2" d="M15.8201 13.16L12.6601 15.08C10.8201 16.2 10.2601 18.46 11.1501 20.26L13.2001 24.44C13.8601 25.79 15.4601 26.26 16.7401 25.47L23.1701 21.56C24.4601 20.78 24.7701 19.15 23.8801 17.94L21.1101 14.2C19.9101 12.58 17.6601 12.04 15.8201 13.16Z" stroke="white" stroke-width="1.5" stroke-linecap="round" stroke-linejoin="round"/>
<path id="Vector_3" d="M14.7567 9.09791L9.63208 12.2185L11.7125 15.6349L16.8371 12.5143L14.7567 9.09791Z" stroke="white" stroke-width="1.5" stroke-linecap="round" stroke-linejoin="round"/>
<path id="Vector_4" d="M18.3101 20.8101L19.9601 23.5201" stroke="white" stroke-width="1.5" stroke-linecap="round" stroke-linejoin="round"/>
<path id="Vector_5" d="M15.75 22.37L17.4 25.08" stroke="white" stroke-width="1.5" stroke-linecap="round" stroke-linejoin="round"/>
<path id="Vector_6" d="M20.8701 19.25L22.5201 21.96" stroke="white" stroke-width="1.5" stroke-linecap="round" stroke-linejoin="round"/>
</g>
</g>
</g>
</svg>
