<svg width="17" height="17" viewBox="0 0 17 17" fill="none" xmlns="http://www.w3.org/2000/svg">
<g id="vuesax/linear/verify">
<g id="verify">
<path id="Vector" d="M5.93555 8.50006L7.64263 10.2142L11.0639 6.78589" stroke="#212121" stroke-width="1.5" stroke-linecap="round" stroke-linejoin="round"/>
<path id="Vector_2" d="M7.6143 1.73531C8.10305 1.3174 8.90346 1.3174 9.3993 1.73531L10.5185 2.69865C10.731 2.88281 11.1276 3.03156 11.411 3.03156H12.6151C13.366 3.03156 13.9822 3.64781 13.9822 4.39865V5.60281C13.9822 5.87906 14.131 6.28281 14.3151 6.49531L15.2785 7.61448C15.6964 8.10323 15.6964 8.90365 15.2785 9.39948L14.3151 10.5186C14.131 10.7311 13.9822 11.1278 13.9822 11.4111V12.6153C13.9822 13.3661 13.366 13.9824 12.6151 13.9824H11.411C11.1347 13.9824 10.731 14.1311 10.5185 14.3153L9.3993 15.2786C8.91055 15.6966 8.11013 15.6966 7.6143 15.2786L6.49513 14.3153C6.28263 14.1311 5.88596 13.9824 5.60263 13.9824H4.37721C3.62638 13.9824 3.01013 13.3661 3.01013 12.6153V11.4041C3.01013 11.1278 2.86138 10.7311 2.6843 10.5186L1.72805 9.3924C1.31721 8.90365 1.31721 8.11031 1.72805 7.62156L2.6843 6.49531C2.86138 6.28281 3.01013 5.88615 3.01013 5.6099V4.39156C3.01013 3.64073 3.62638 3.02448 4.37721 3.02448H5.60263C5.87888 3.02448 6.28263 2.87573 6.49513 2.69156L7.6143 1.73531Z" stroke="#212121" stroke-width="1.5" stroke-linecap="round" stroke-linejoin="round"/>
</g>
</g>
</svg>
