<svg width="20" height="20" viewBox="0 0 20 20" fill="none" xmlns="http://www.w3.org/2000/svg">
<path fill-rule="evenodd" clip-rule="evenodd" d="M9.58464 2.29175C5.55756 2.29175 2.29297 5.55634 2.29297 9.58342C2.29297 13.6105 5.55756 16.8751 9.58464 16.8751C13.6117 16.8751 16.8763 13.6105 16.8763 9.58342C16.8763 5.55634 13.6117 2.29175 9.58464 2.29175ZM1.04297 9.58342C1.04297 4.86598 4.8672 1.04175 9.58464 1.04175C14.3021 1.04175 18.1263 4.86598 18.1263 9.58342C18.1263 14.3008 14.3021 18.1251 9.58464 18.1251C4.8672 18.1251 1.04297 14.3008 1.04297 9.58342Z" fill="#A4B0BE"/>
<path fill-rule="evenodd" clip-rule="evenodd" d="M16.226 16.2248C16.4701 15.9807 16.8658 15.9807 17.1099 16.2248L18.7765 17.8915C19.0206 18.1356 19.0206 18.5312 18.7765 18.7753C18.5324 19.0194 18.1368 19.0194 17.8927 18.7753L16.226 17.1086C15.9819 16.8646 15.9819 16.4689 16.226 16.2248Z" fill="#A4B0BE"/>
</svg>
