<svg width="18" height="18" viewBox="0 0 18 18" fill="none" xmlns="http://www.w3.org/2000/svg">
<g id="down 1">
<g id="16">
<path id="Vector" d="M12.0001 9.00002C12.0007 8.90131 11.9818 8.80346 11.9445 8.71209C11.9071 8.62071 11.8522 8.5376 11.7826 8.46752L7.28264 3.96752C7.14141 3.82629 6.94987 3.74695 6.75014 3.74695C6.55041 3.74695 6.35887 3.82629 6.21764 3.96752C6.07641 4.10874 5.99707 4.30029 5.99707 4.50002C5.99707 4.69974 6.07641 4.89129 6.21764 5.03252L10.1926 9.00002L6.22514 12.9675C6.10227 13.111 6.03806 13.2955 6.04536 13.4843C6.05265 13.6731 6.1309 13.8521 6.26447 13.9857C6.39804 14.1193 6.57709 14.1975 6.76585 14.2048C6.95461 14.2121 7.13916 14.1479 7.28264 14.025L11.7826 9.52502C11.9212 9.38532 11.9993 9.19677 12.0001 9.00002Z" fill="black"/>
</g>
</g>
</svg>
