<svg width="30" height="31" viewBox="0 0 30 31" fill="none" xmlns="http://www.w3.org/2000/svg">
<path fill-rule="evenodd" clip-rule="evenodd" d="M20.1137 11.8709C20.4798 12.2371 20.4798 12.8306 20.1137 13.1968L14.1812 19.1293C13.8152 19.4954 13.2217 19.4954 12.8556 19.1294L9.88801 16.1631C9.52181 15.7971 9.52169 15.2035 9.88773 14.8374C10.2538 14.4711 10.8474 14.471 11.2136 14.837L13.5182 17.1406L18.7879 11.8709C19.1539 11.5048 19.7476 11.5048 20.1137 11.8709Z" fill="#007739"/>
<path fill-rule="evenodd" clip-rule="evenodd" d="M5.30411 5.80427C7.38884 3.71955 10.6124 3.00015 15 3.00015C19.3877 3.00015 22.6112 3.71955 24.6959 5.80427C26.7806 7.88899 27.5 11.1125 27.5 15.5001C27.5 19.8877 26.7806 23.1114 24.6959 25.196C22.6112 27.2807 19.3877 28.0001 15 28.0001C10.6124 28.0001 7.38884 27.2807 5.30411 25.196C3.21939 23.1114 2.5 19.8877 2.5 15.5001C2.5 11.1125 3.21939 7.88899 5.30411 5.80427ZM6.62994 7.1301C5.10122 8.65881 4.375 11.2165 4.375 15.5001C4.375 19.7837 5.10122 22.3415 6.62994 23.8702C8.15865 25.3989 10.7164 26.1251 15 26.1251C19.2837 26.1251 21.8413 25.3989 23.3701 23.8702C24.8988 22.3415 25.625 19.7837 25.625 15.5001C25.625 11.2165 24.8988 8.65881 23.3701 7.1301C21.8413 5.60137 19.2837 4.87515 15 4.87515C10.7164 4.87515 8.15865 5.60137 6.62994 7.1301Z" fill="#007739"/>
</svg>

