<svg width="32" height="32" viewBox="0 0 32 32" fill="none" xmlns="http://www.w3.org/2000/svg">
<rect x="0.5" y="0.5" width="31" height="31" rx="15.5" stroke="#0072B5"/>
<path d="M16.1586 14.87C16.0586 14.86 15.9386 14.86 15.8286 14.87C13.4486 14.79 11.5586 12.84 11.5586 10.44C11.5586 7.99 13.5386 6 15.9986 6C18.4486 6 20.4386 7.99 20.4386 10.44C20.4286 12.84 18.5386 14.79 16.1586 14.87Z" stroke="#0072B5" stroke-width="1.5" stroke-linecap="round" stroke-linejoin="round"/>
<path d="M11.1588 18.56C8.73875 20.18 8.73875 22.82 11.1588 24.43C13.9088 26.27 18.4188 26.27 21.1688 24.43C23.5888 22.81 23.5888 20.17 21.1688 18.56C18.4288 16.73 13.9188 16.73 11.1588 18.56Z" stroke="#0072B5" stroke-width="1.5" stroke-linecap="round" stroke-linejoin="round"/>
</svg>
