<svg width="24" height="24" viewBox="0 0 24 24" fill="none" xmlns="http://www.w3.org/2000/svg">
<g id="checklist 1">
<path id="Vector" d="M15 22.5H9C3.57 22.5 1.25 20.18 1.25 14.75V8.75C1.25 3.32 3.57 1 9 1H15C20.43 1 22.75 3.32 22.75 8.75V14.75C22.75 20.18 20.43 22.5 15 22.5ZM9 2.5C4.39 2.5 2.75 4.14 2.75 8.75V14.75C2.75 19.36 4.39 21 9 21H15C19.61 21 21.25 19.36 21.25 14.75V8.75C21.25 4.14 19.61 2.5 15 2.5H9Z" fill="#3C3C3C"/>
<rect id="Rectangle 347" x="13.75" y="10.25" width="5.5" height="3.5" rx="1.25" stroke="#3C3C3C" stroke-width="1.5" stroke-linejoin="round"/>
<rect id="Rectangle 348" x="4.75" y="10.25" width="5.5" height="3.5" rx="1.25" stroke="#3C3C3C" stroke-width="1.5" stroke-linejoin="round"/>
</g>
</svg>
